<?xml version="1.0" standalone="no"?>
<!DOCTYPE svg PUBLIC "-//W3C//DTD SVG 20010904//EN"
 "http://www.w3.org/TR/2001/REC-SVG-20010904/DTD/svg10.dtd">
<svg version="1.0" xmlns="http://www.w3.org/2000/svg"
 width="1753.000000pt" height="337.000000pt" viewBox="0 0 1753.000000 337.000000"
 preserveAspectRatio="xMidYMid meet">

<g transform="translate(0.000000,337.000000) scale(0.100000,-0.100000)"
fill="#000000" stroke="none">
<path d="M10633 2783 c32 -2 81 -2 110 0 29 2 3 3 -58 3 -60 0 -84 -1 -52 -3z"/>
<path d="M10440 2769 c-64 -10 -162 -37 -140 -38 8 -1 33 4 55 10 22 6 78 17
125 24 47 7 69 12 50 13 -19 0 -60 -4 -90 -9z"/>
<path d="M10828 2773 c12 -2 30 -2 40 0 9 3 -1 5 -23 4 -22 0 -30 -2 -17 -4z"/>
<path d="M10910 2763 c14 -2 56 -11 93 -19 37 -9 70 -14 73 -11 7 7 -133 37
-165 36 l-26 -2 25 -4z"/>
<path d="M10180 2700 c-18 -12 -2 -12 25 0 13 6 15 9 5 9 -8 0 -22 -4 -30 -9z"/>
<path d="M11180 2698 c72 -34 154 -68 157 -65 4 5 -123 62 -157 71 l-25 6 25
-12z"/>
<path d="M10120 2675 c-14 -8 -20 -14 -15 -14 6 0 21 6 35 14 14 8 21 14 15
14 -5 0 -21 -6 -35 -14z"/>
<path d="M9995 2615 c-44 -25 -84 -51 -90 -57 -5 -6 8 0 30 13 22 13 67 38
100 56 33 18 55 33 50 33 -6 0 -46 -20 -90 -45z"/>
<path d="M11355 2623 c6 -6 28 -20 50 -32 22 -13 31 -15 20 -6 -22 18 -86 53
-70 38z"/>
<path d="M13295 2591 c-3 -6 -19 -56 -36 -113 -17 -57 -49 -140 -70 -185 -35
-71 -39 -84 -27 -102 17 -28 23 -27 38 10 17 40 24 29 38 -60 7 -41 23 -106
37 -144 l24 -70 -22 -31 c-11 -17 -47 -59 -79 -92 -55 -58 -58 -63 -47 -88 7
-14 16 -26 20 -26 8 0 115 122 140 159 l15 24 46 -64 c25 -35 59 -77 76 -92
l30 -29 15 22 c15 21 13 25 -36 84 -29 33 -63 76 -75 94 l-24 32 27 70 c29 76
65 235 65 290 0 59 10 80 36 80 20 0 24 5 24 30 l0 30 -105 0 c-58 0 -105 1
-105 3 0 1 9 31 20 67 26 84 26 110 1 110 -11 0 -22 -4 -26 -9z m110 -258 c-2
-16 -9 -66 -15 -112 -13 -92 -46 -211 -59 -211 -10 0 -15 17 -37 115 -25 119
-34 197 -23 217 8 15 22 18 74 18 l65 0 -5 -27z"/>
<path d="M14186 2585 c-20 -15 -20 -16 2 -60 12 -25 22 -48 22 -50 0 -3 -70
-5 -155 -5 l-155 0 0 -25 0 -25 325 0 325 0 0 25 0 25 -152 0 c-113 0 -149 3
-141 11 9 9 5 25 -15 65 -14 30 -29 54 -32 54 -3 0 -14 -7 -24 -15z"/>
<path d="M15060 2535 l0 -65 -205 0 -205 0 0 -25 0 -25 205 0 205 0 0 -85 0
-85 -130 0 -130 0 0 -32 c0 -55 88 -188 193 -291 l48 -47 -93 -45 c-51 -24
-129 -54 -173 -66 -44 -12 -86 -23 -93 -25 -17 -5 14 -54 34 -54 31 0 192 63
279 109 l93 49 29 -20 c79 -54 277 -138 324 -138 18 0 34 29 22 40 -4 4 -39
17 -78 30 -67 22 -185 76 -233 108 l-23 15 56 49 c30 28 75 78 99 111 43 61
96 158 96 175 0 20 -57 32 -155 32 l-105 0 0 85 0 85 205 0 205 0 0 25 0 25
-205 0 -205 0 0 65 0 65 -30 0 -30 0 0 -65z m250 -349 c0 -27 -81 -135 -151
-200 l-70 -67 -27 20 c-61 43 -202 220 -202 253 0 4 101 8 225 8 185 0 225 -2
225 -14z"/>
<path d="M12714 2523 c-22 -36 -61 -90 -87 -119 -47 -52 -48 -53 -31 -79 9
-14 18 -25 20 -25 9 0 125 154 154 206 32 54 32 58 15 70 -11 8 -22 14 -26 14
-3 0 -24 -30 -45 -67z"/>
<path d="M13800 2498 c-32 -92 -101 -238 -147 -311 -22 -35 -23 -43 -12 -63 7
-13 15 -24 19 -24 3 0 24 30 45 68 l40 67 3 -278 2 -278 28 3 27 3 5 350 5
350 34 87 c28 72 32 90 21 103 -24 29 -38 14 -70 -77z"/>
<path d="M15776 2536 c-26 -88 -85 -221 -137 -307 -42 -70 -47 -83 -37 -105 6
-13 14 -24 18 -24 4 0 24 30 46 67 l39 67 3 -278 2 -277 28 3 27 3 5 350 6
350 36 90 c34 82 36 91 21 103 -30 22 -41 13 -57 -42z"/>
<path d="M16280 2480 l0 -110 -216 0 -215 0 3 -27 3 -28 213 -3 212 -2 0 -259
c0 -292 1 -287 -79 -298 -35 -5 -41 -9 -41 -29 0 -22 4 -24 55 -24 46 0 60 4
87 29 l33 29 3 276 3 276 69 0 70 0 0 30 0 30 -70 0 -70 0 0 110 0 110 -30 0
-30 0 0 -110z"/>
<path d="M12960 2460 l0 -120 -45 0 -45 0 0 85 c0 84 0 85 -25 85 l-25 0 0
-110 0 -110 170 0 170 0 0 110 0 110 -30 0 -30 0 0 -85 0 -85 -40 0 -40 0 0
120 0 120 -30 0 -30 0 0 -120z"/>
<path d="M11455 2563 c6 -5 37 -30 70 -55 33 -26 82 -69 110 -97 41 -42 47
-53 35 -61 -17 -11 -9 -13 14 -4 22 9 -17 57 -104 130 -62 51 -151 114 -125
87z"/>
<path d="M9819 2497 c-76 -63 -196 -192 -223 -239 -24 -42 -12 -29 46 47 46
60 139 153 213 212 22 18 38 32 34 33 -3 0 -34 -24 -70 -53z"/>
<path d="M12730 2308 c-20 -49 -85 -160 -126 -214 -32 -42 -35 -49 -23 -70 7
-13 15 -24 18 -24 3 0 22 22 41 47 l35 47 3 -207 2 -207 25 0 25 0 0 250 0
250 34 68 c33 66 34 69 15 80 -28 18 -35 15 -49 -20z"/>
<path d="M11535 2290 c-44 -21 -77 -39 -74 -39 4 -1 44 17 90 38 46 22 80 40
74 40 -5 0 -46 -18 -90 -39z"/>
<path d="M13950 2290 l0 -30 270 0 270 0 0 30 0 30 -270 0 -270 0 0 -30z"/>
<path d="M11355 2211 c-79 -39 -66 -39 16 -1 35 16 60 29 54 30 -5 0 -37 -13
-70 -29z"/>
<path d="M9545 2170 c-14 -27 -23 -50 -20 -50 2 0 16 23 30 50 14 28 23 50 20
50 -2 0 -16 -22 -30 -50z"/>
<path d="M11757 2201 c-44 -29 -45 -35 -1 -13 l41 21 26 -47 c15 -26 27 -42
27 -37 0 16 -44 88 -55 91 -5 1 -22 -5 -38 -15z"/>
<path d="M12840 2170 l0 -30 145 0 145 0 0 30 0 30 -145 0 -145 0 0 -30z"/>
<path d="M15986 2165 c-19 -14 -17 -18 35 -129 l54 -114 28 16 c15 9 26 19 25
22 -2 3 -26 53 -55 113 -28 59 -55 107 -60 107 -4 0 -17 -7 -27 -15z"/>
<path d="M11175 2130 c-44 -21 -77 -39 -74 -39 4 -1 44 17 90 38 46 22 80 40
74 40 -5 0 -46 -18 -90 -39z"/>
<path d="M11565 2089 c-77 -45 -144 -86 -150 -92 -13 -13 -17 -15 145 78 124
71 162 95 149 95 -2 0 -67 -37 -144 -81z"/>
<path d="M13950 2140 l0 -30 270 0 270 0 0 30 0 30 -270 0 -270 0 0 -30z"/>
<path d="M1789 2109 c-42 -15 -49 -47 -49 -212 l0 -152 -30 37 c-45 54 -108
81 -189 80 -117 0 -195 -53 -250 -172 -24 -50 -26 -66 -26 -180 1 -103 4 -134
21 -176 30 -73 66 -117 124 -148 108 -59 237 -42 309 40 l41 47 0 -37 c0 -73
90 -116 140 -66 19 19 20 33 20 459 0 404 -1 440 -17 459 -22 25 -60 33 -94
21z m-149 -394 c81 -42 122 -179 89 -299 -15 -53 -75 -115 -122 -126 -46 -10
-103 4 -135 33 -106 98 -86 341 32 393 41 18 100 17 136 -1z"/>
<path d="M7079 2106 c-54 -31 -60 -108 -12 -146 88 -69 212 42 140 125 -27 32
-90 42 -128 21z"/>
<path d="M9506 2095 c-9 -26 -7 -32 5 -12 6 10 9 21 6 23 -2 3 -7 -2 -11 -11z"/>
<path d="M11856 2095 c3 -11 17 -51 30 -90 13 -38 23 -63 24 -54 0 20 -35 122
-50 146 -10 16 -11 16 -4 -2z"/>
<path d="M7860 2080 c-19 -19 -20 -33 -20 -453 0 -420 1 -434 20 -452 28 -26
96 -24 123 4 21 20 22 33 27 236 5 196 7 216 26 242 45 62 146 81 196 37 42
-38 48 -72 48 -282 0 -186 1 -201 21 -226 27 -34 98 -37 129 -6 19 19 20 33
20 268 0 240 -1 248 -24 299 -29 61 -79 98 -151 112 -55 10 -127 1 -174 -23
-30 -16 -80 -69 -83 -89 -1 -7 -4 61 -7 149 -5 140 -9 165 -25 183 -26 29 -98
29 -126 1z"/>
<path d="M10985 2045 c-38 -18 -65 -33 -60 -33 6 -1 42 14 80 33 39 18 66 33
60 33 -5 1 -41 -14 -80 -33z"/>
<path d="M12848 1957 c-5 -94 -20 -139 -59 -178 -16 -16 -17 -22 -7 -39 18
-28 32 -25 62 15 38 49 56 108 56 181 l0 64 75 0 75 0 0 -66 c0 -36 -5 -74
-10 -84 -11 -21 6 -70 24 -70 6 0 39 26 74 58 57 52 61 58 47 76 -14 18 -15
18 -47 -9 l-33 -28 -3 87 -3 86 -123 0 -123 0 -5 -93z"/>
<path d="M4485 2005 c-21 -21 -25 -33 -25 -88 l0 -64 -40 -6 c-54 -7 -70 -22
-70 -67 0 -44 14 -59 64 -67 l36 -6 0 -193 c0 -232 9 -282 56 -323 40 -35 81
-45 171 -39 57 4 69 8 89 32 26 30 31 65 12 84 -7 7 -33 12 -58 12 -25 0 -56
7 -68 16 -21 15 -22 20 -22 213 l0 198 51 5 c59 6 82 25 82 69 0 45 -32 69
-94 69 l-49 0 0 69 c0 63 -2 71 -26 90 -36 28 -79 27 -109 -4z"/>
<path d="M7445 2005 c-21 -21 -25 -33 -25 -88 l0 -64 -42 -6 c-46 -6 -68 -27
-68 -65 0 -40 18 -61 59 -68 l39 -6 4 -222 c3 -242 8 -263 70 -309 42 -31 181
-36 225 -8 35 22 52 65 36 90 -7 11 -28 17 -64 19 -89 5 -89 4 -89 232 l0 197
52 5 c118 12 119 124 1 135 l-50 5 -6 66 c-4 56 -9 70 -32 89 -35 30 -79 30
-110 -2z"/>
<path d="M9476 2004 c-4 -14 -5 -28 -3 -31 3 -2 8 8 11 23 4 14 5 28 3 31 -3
2 -8 -8 -11 -23z"/>
<path d="M10045 2008 c11 -6 48 -31 83 -55 34 -25 62 -42 62 -39 0 9 -142 106
-154 106 -6 0 -2 -6 9 -12z"/>
<path d="M13962 1863 l3 -148 258 -3 257 -2 0 150 0 150 -260 0 -261 0 3 -147z
m458 2 l0 -95 -200 0 -200 0 0 95 0 95 200 0 200 0 0 -95z"/>
<path d="M9983 1985 c-3 -9 -3 -18 -1 -21 3 -3 8 4 11 16 6 23 -1 27 -10 5z"/>
<path d="M10813 1970 c-35 -16 -63 -31 -63 -34 0 -6 94 34 127 53 35 20 -3 9
-64 -19z"/>
<path d="M11333 1954 c-35 -19 -63 -38 -63 -41 0 -5 109 54 125 68 16 16 1 9
-62 -27z"/>
<path d="M9456 1938 c-4 -13 -9 -86 -11 -163 l-3 -140 8 130 c4 72 11 145 15
163 8 36 1 44 -9 10z"/>
<path d="M9981 1946 c-1 -13 51 -127 56 -122 2 2 -10 32 -26 67 -16 35 -30 60
-30 55z"/>
<path d="M11912 1910 c0 -14 2 -19 5 -12 2 6 2 18 0 25 -3 6 -5 1 -5 -13z"/>
<path d="M10625 1885 c-38 -18 -65 -33 -60 -33 13 -1 153 66 140 67 -5 0 -41
-15 -80 -34z"/>
<path d="M10200 1907 c0 -3 32 -29 72 -58 88 -64 130 -72 206 -39 29 13 51 24
49 27 -2 2 -24 -6 -48 -17 -82 -37 -117 -26 -256 76 -13 9 -23 14 -23 11z"/>
<path d="M11203 1879 c-29 -17 -53 -33 -53 -36 0 -5 89 44 105 58 16 16 1 9
-52 -22z"/>
<path d="M2181 1859 c-54 -10 -100 -41 -132 -87 -18 -27 -25 -52 -27 -108 -7
-126 35 -192 227 -357 58 -49 117 -104 132 -123 l27 -34 26 35 c15 19 79 78
142 131 63 52 135 122 158 154 101 136 82 300 -42 369 -84 46 -211 23 -262
-49 l-21 -30 -31 36 c-52 59 -112 78 -197 63z m177 -206 c17 -20 32 -42 32
-50 0 -24 16 -13 33 22 51 107 187 86 187 -28 0 -57 -30 -98 -129 -181 l-80
-67 -78 66 c-43 37 -90 85 -105 107 -83 123 43 241 140 131z"/>
<path d="M3241 1859 c-59 -11 -116 -51 -140 -96 l-20 -38 -1 43 c0 53 -34 92
-79 92 -88 0 -91 -13 -91 -358 0 -278 1 -290 21 -316 16 -21 29 -26 63 -26 80
0 80 1 86 237 5 184 8 213 26 247 46 90 175 103 224 24 18 -30 20 -51 20 -229
0 -256 8 -279 99 -279 69 0 71 8 71 285 0 134 -5 256 -10 277 -29 102 -144
161 -269 137z"/>
<path d="M5087 1856 c-103 -29 -185 -117 -207 -223 -7 -31 -10 -104 -8 -162 3
-91 7 -114 31 -163 52 -107 147 -158 291 -158 108 0 175 21 226 69 42 39 50
73 30 112 -17 31 -73 25 -127 -13 -40 -30 -52 -33 -113 -33 -54 0 -75 4 -97
21 -38 29 -63 74 -66 120 l-2 39 205 6 c113 3 206 6 206 7 47 71 23 213 -51
300 -60 72 -210 109 -318 78z m163 -141 c32 -17 53 -51 65 -102 l7 -33 -136 0
-136 0 0 25 c0 35 24 79 56 104 32 25 101 28 144 6z"/>
<path d="M3822 1846 c-95 -31 -152 -109 -118 -161 25 -37 80 -34 136 8 40 29
52 32 112 32 87 0 109 -19 116 -98 l4 -55 -128 -4 c-148 -4 -204 -23 -252 -86
-24 -32 -27 -44 -27 -117 0 -72 3 -86 27 -122 39 -59 104 -88 194 -88 58 1 78
5 118 29 26 15 50 34 53 42 8 20 23 17 23 -5 0 -10 8 -29 18 -41 26 -32 98
-32 124 0 18 22 19 41 16 281 l-3 257 -30 43 c-49 69 -107 93 -235 96 -69 2
-120 -2 -148 -11z m248 -431 c0 -88 -47 -135 -134 -135 -65 0 -106 36 -106 95
0 35 5 48 26 64 23 18 41 21 120 21 l94 0 0 -45z"/>
<path d="M6045 1848 c-29 -17 -44 -40 -45 -67 0 -27 124 -498 145 -547 21 -50
53 -74 101 -74 23 0 49 3 58 6 31 12 55 72 106 269 29 110 56 204 60 208 4 4
28 -72 55 -170 80 -297 89 -313 175 -313 48 0 73 17 99 67 16 32 151 530 151
559 0 57 -78 93 -127 59 -28 -19 -34 -40 -84 -280 -22 -110 -43 -202 -45 -204
-9 -10 -18 17 -69 218 -30 116 -59 220 -65 230 -27 52 -98 66 -143 30 -30 -23
-45 -65 -107 -316 -23 -95 -45 -173 -49 -173 -4 0 -26 100 -50 223 -24 122
-48 232 -54 243 -17 38 -73 54 -112 32z"/>
<path d="M7076 1839 l-26 -20 0 -310 c0 -296 1 -310 20 -329 22 -22 78 -27
110 -10 35 18 40 65 40 341 0 271 -4 310 -38 335 -26 20 -76 17 -106 -7z"/>
<path d="M11922 1830 c0 -19 2 -27 5 -17 2 9 2 25 0 35 -3 9 -5 1 -5 -18z"/>
<path d="M11078 1806 c-78 -44 -88 -58 -13 -17 55 30 86 51 75 51 -3 0 -31
-15 -62 -34z"/>
<path d="M10054 1777 c17 -42 45 -94 46 -86 0 10 -51 119 -56 119 -2 0 2 -15
10 -33z"/>
<path d="M10943 1729 c-29 -17 -53 -33 -53 -36 0 -5 89 44 105 58 16 16 1 9
-52 -22z"/>
<path d="M10823 1659 c-29 -17 -53 -33 -53 -36 0 -5 89 44 105 58 16 16 1 9
-52 -22z"/>
<path d="M11922 1660 c0 -19 2 -27 5 -17 2 9 2 25 0 35 -3 9 -5 1 -5 -18z"/>
<path d="M10111 1658 c-1 -11 91 -209 96 -205 2 2 -19 51 -46 108 -27 57 -50
101 -50 97z"/>
<path d="M9454 1590 c5 -48 45 -185 52 -178 2 3 -3 25 -11 49 -9 24 -22 74
-30 109 -12 52 -14 56 -11 20z"/>
<path d="M10592 1526 c-79 -47 -147 -88 -150 -91 -10 -11 28 9 133 70 135 78
165 97 165 101 0 6 1 7 -148 -80z"/>
<path d="M11911 1574 c0 -11 3 -14 6 -6 3 7 2 16 -1 19 -3 4 -6 -2 -5 -13z"/>
<path d="M11882 1477 c-13 -40 -26 -79 -29 -87 -4 -13 -3 -13 6 0 15 21 53
138 49 150 -2 5 -14 -23 -26 -63z"/>
<path d="M10210 1433 c0 -17 51 -63 69 -62 11 0 10 3 -5 9 -12 4 -31 21 -43
36 -11 14 -21 22 -21 17z"/>
<path d="M13824 1426 c-125 -30 -195 -130 -196 -275 -1 -175 92 -271 263 -271
82 0 139 14 139 35 0 20 -23 33 -45 24 -11 -4 -48 -8 -83 -8 -143 -2 -216 71
-216 220 -1 147 76 232 212 232 37 0 77 -5 88 -11 16 -9 22 -7 32 9 18 28 9
36 -49 48 -61 13 -79 13 -145 -3z"/>
<path d="M14120 1160 l0 -280 30 0 30 0 0 141 0 141 34 34 c44 44 100 48 137
8 23 -24 24 -33 27 -175 l3 -150 27 3 27 3 3 120 c2 66 -2 140 -8 165 -27 107
-132 147 -226 85 l-24 -15 0 100 0 100 -30 0 -30 0 0 -280z"/>
<path d="M10360 1394 c-36 -20 -54 -32 -40 -29 27 8 110 53 110 60 0 7 4 8
-70 -31z"/>
<path d="M12570 1424 c0 -3 11 -47 24 -97 56 -211 116 -439 116 -443 0 -2 11
-4 25 -4 27 0 17 -26 109 284 20 65 36 125 36 132 0 36 17 7 32 -55 9 -38 33
-135 54 -216 36 -143 38 -146 63 -143 24 3 29 15 103 258 42 140 77 263 77
273 1 14 -5 18 -25 15 -26 -3 -29 -12 -89 -218 -35 -118 -65 -208 -68 -200 -3
8 -29 106 -58 218 -52 200 -53 203 -78 200 -24 -3 -29 -14 -79 -183 -29 -99
-55 -195 -59 -212 -3 -18 -8 -33 -12 -33 -3 0 -28 87 -55 193 -61 240 -59 237
-91 237 -14 0 -25 -3 -25 -6z"/>
<path d="M15458 1424 c-17 -5 -18 -27 -18 -275 l0 -269 25 0 25 0 0 109 0 108
69 6 c38 3 82 12 98 20 84 44 116 142 74 225 -29 57 -71 76 -171 78 -47 2 -93
0 -102 -2z m165 -53 c63 -24 89 -108 51 -166 -26 -40 -120 -67 -168 -49 -13 5
-16 24 -16 108 0 57 3 106 7 109 10 10 98 8 126 -2z"/>
<path d="M9510 1396 c0 -11 40 -86 45 -86 3 0 -4 19 -16 43 -23 45 -29 54 -29
43z"/>
<path d="M14930 1315 c0 -43 -1 -45 -30 -45 -23 0 -30 -4 -30 -20 0 -16 7 -20
30 -20 l30 0 0 -135 c0 -161 10 -197 63 -214 18 -6 41 -9 50 -6 10 3 24 7 32
10 13 4 14 9 5 25 -7 14 -21 20 -44 20 -22 0 -36 6 -40 16 -3 9 -6 76 -6 150
l0 134 50 0 c43 0 50 3 50 20 0 17 -7 20 -50 20 l-50 0 0 45 c0 43 -1 45 -30
45 -29 0 -30 -2 -30 -45z"/>
<path d="M11809 1308 c-7 -13 -19 -34 -27 -48 -14 -24 -13 -24 3 -5 20 24 48
75 41 75 -3 0 -11 -10 -17 -22z"/>
<path d="M9570 1280 c6 -11 13 -20 16 -20 2 0 0 9 -6 20 -6 11 -13 20 -16 20
-2 0 0 -9 6 -20z"/>
<path d="M13354 1281 c-84 -21 -134 -96 -134 -202 1 -123 55 -189 162 -197 60
-5 113 2 137 17 12 8 12 12 2 24 -9 12 -28 14 -89 10 -73 -5 -79 -4 -110 21
-29 25 -61 100 -48 113 2 2 64 5 138 6 l133 2 -2 48 c-3 111 -89 182 -189 158z
m105 -75 c11 -12 24 -36 27 -54 l7 -32 -107 0 c-95 0 -106 2 -106 18 0 21 27
63 49 77 43 28 99 24 130 -9z"/>
<path d="M14635 1281 c-16 -4 -40 -13 -53 -20 -18 -10 -20 -15 -12 -31 12 -23
15 -24 41 -9 11 5 39 11 62 11 33 0 46 -5 65 -27 12 -15 22 -37 20 -49 -3 -18
-12 -22 -60 -28 -107 -13 -161 -59 -162 -137 -1 -39 4 -55 23 -75 46 -49 120
-53 185 -11 25 17 26 17 26 -4 0 -16 6 -21 26 -21 l26 0 -3 158 c-4 169 -11
194 -62 226 -29 18 -84 26 -122 17z m125 -247 c0 -37 -5 -51 -30 -75 -25 -26
-36 -30 -72 -27 -34 2 -45 8 -57 30 -33 58 26 118 117 118 l42 0 0 -46z"/>
<path d="M15867 1276 c-26 -7 -50 -16 -54 -20 -11 -11 13 -42 29 -37 52 14 77
17 103 10 37 -10 55 -34 55 -71 0 -26 -3 -28 -38 -28 -57 0 -129 -28 -157 -62
-33 -39 -35 -113 -4 -151 38 -49 121 -54 185 -12 23 15 24 14 24 -5 0 -17 5
-21 26 -18 l26 3 -1 145 c-2 114 -5 152 -19 179 -32 66 -93 89 -175 67z m133
-245 c0 -39 -5 -53 -27 -75 -22 -23 -34 -26 -72 -24 -39 3 -48 7 -59 31 -29
60 28 116 116 117 l42 0 0 -49z"/>
<path d="M16130 1273 c0 -4 32 -87 71 -185 54 -136 70 -185 64 -205 -7 -28
-88 -116 -114 -125 -12 -3 -12 -7 0 -26 17 -28 18 -28 67 8 63 45 93 108 259
528 3 8 -5 12 -25 12 -19 0 -32 -6 -37 -17 -5 -15 -81 -218 -101 -273 -3 -8
-28 42 -58 115 -68 169 -72 175 -101 175 -14 0 -25 -3 -25 -7z"/>
<path d="M9598 1235 c6 -11 25 -36 42 -55 l32 -35 -33 45 c-40 55 -55 72 -41
45z"/>
<path d="M11720 1174 c-97 -121 -221 -220 -385 -306 -49 -26 -86 -48 -82 -48
21 0 197 99 266 150 76 57 219 199 240 239 18 33 9 25 -39 -35z"/>
<path d="M9710 1097 c25 -27 76 -74 113 -104 38 -31 75 -70 83 -87 11 -25 13
-26 8 -6 -6 25 -20 40 -158 165 -97 88 -101 91 -46 32z"/>
<path d="M9901 854 c0 -11 3 -14 6 -6 3 7 2 16 -1 19 -3 4 -6 -2 -5 -13z"/>
<path d="M11090 769 c-37 -12 -44 -16 -20 -13 34 6 105 33 85 32 -5 0 -35 -8
-65 -19z"/>
<path d="M10193 770 c-35 -14 -27 -20 11 -9 22 6 50 6 77 0 55 -12 64 -6 12 8
-45 13 -70 13 -100 1z"/>
<path d="M9857 690 c-9 -33 -17 -68 -17 -79 0 -32 35 -35 85 -6 61 36 57 43
-5 9 -69 -38 -79 -26 -55 61 22 82 16 95 -8 15z"/>
<path d="M10084 709 c-59 -35 -112 -73 -79 -57 31 16 155 91 155 94 0 7 -6 4
-76 -37z"/>
<path d="M10348 743 c6 -2 18 -2 25 0 6 3 1 5 -13 5 -14 0 -19 -2 -12 -5z"/>
<path d="M10998 743 c6 -2 18 -2 25 0 6 3 1 5 -13 5 -14 0 -19 -2 -12 -5z"/>
<path d="M10398 733 c6 -2 18 -2 25 0 6 3 1 5 -13 5 -14 0 -19 -2 -12 -5z"/>
<path d="M10958 733 c7 -3 16 -2 19 1 4 3 -2 6 -13 5 -11 0 -14 -3 -6 -6z"/>
<path d="M10473 723 c9 -2 23 -2 30 0 6 3 -1 5 -18 5 -16 0 -22 -2 -12 -5z"/>
<path d="M10878 723 c12 -2 30 -2 40 0 9 3 -1 5 -23 4 -22 0 -30 -2 -17 -4z"/>
<path d="M10558 713 c17 -2 47 -2 65 0 17 2 3 4 -33 4 -36 0 -50 -2 -32 -4z"/>
<path d="M10758 713 c18 -2 45 -2 60 0 15 2 0 4 -33 4 -33 0 -45 -2 -27 -4z"/>
<path d="M10678 703 c6 -2 18 -2 25 0 6 3 1 5 -13 5 -14 0 -19 -2 -12 -5z"/>
</g>
</svg>
